<svg width="200" height="200" viewBox="0 0 200 200" fill="none" xmlns="http://www.w3.org/2000/svg">
<g clip-path="url(#clip0_17_87)">
<rect width="200" height="200" fill="#FAFAFA"/>
<path d="M200 0H0V200H200V0Z" fill="#FAFAFA"/>
<path d="M100.273 47C110.611 47 120.718 50.0657 129.314 55.8095C137.91 61.5533 144.61 69.7172 148.566 79.2688C152.523 88.8204 153.558 99.3307 151.541 109.471C149.524 119.611 144.546 128.925 137.235 136.235C129.925 143.546 120.611 148.524 110.471 150.541C100.331 152.558 89.8204 151.523 80.2688 147.566C70.7172 143.61 62.5533 136.91 56.8095 128.314C51.0657 119.718 48 109.611 48 99.2727C50.703 104.932 54.7244 109.861 59.7266 113.644C64.7288 117.428 70.5658 119.956 76.7474 121.017C82.929 122.078 89.2749 121.64 95.2522 119.74C101.23 117.84 106.664 114.534 111.099 110.099C115.534 105.664 118.84 100.23 120.74 94.2522C122.64 88.2749 123.078 81.929 122.017 75.7474C120.956 69.5658 118.428 63.7288 114.644 58.7266C110.861 53.7244 105.932 49.703 100.273 47Z" fill="#8563FF"/>
<g clip-path="url(#clip1_17_87)">
<path d="M90.7283 104.395C88.5497 106.574 88.5333 110.098 90.6894 112.299C90.8471 112.459 91.0183 112.601 91.1895 112.748C93.6096 114.666 97.1266 114.256 99.0447 111.836C100.637 109.825 100.656 106.986 99.0919 104.953C98.9477 104.78 98.8073 104.607 98.6496 104.447C96.4704 102.257 92.9354 102.233 90.7283 104.395ZM97.1534 110.908C95.7494 112.286 93.4941 112.265 92.1187 110.859C90.7434 109.453 90.7626 107.199 92.1685 105.824C93.5725 104.447 95.8278 104.468 97.2032 105.874C98.5805 107.27 98.5651 109.52 97.1707 110.895C97.163 110.899 97.1592 110.903 97.1534 110.908Z" fill="#AECBFA"/>
<path d="M84.63 61.0754C82.2098 59.1573 78.6928 59.5674 76.7747 61.9876C75.1827 63.9988 75.1633 66.8375 76.7276 68.8703C76.8679 69.0434 77.0121 69.2166 77.1679 69.3745C79.3356 71.5721 82.8745 71.5963 85.072 69.4286C87.2696 67.261 87.2939 63.7221 85.1262 61.5245C84.9743 61.3628 84.7992 61.22 84.63 61.0754ZM83.6682 67.9824C82.2718 69.3674 80.0165 69.3577 78.6334 67.9632C77.2484 66.5668 77.2581 64.3114 78.6526 62.9283C80.049 61.5433 82.3043 61.553 83.6874 62.9475C85.0629 64.3458 85.0551 66.5916 83.6682 67.9824Z" fill="#AECBFA"/>
<path d="M85.7028 81.7831C84.4135 82.3329 83.3812 83.3512 82.8138 84.6328C81.5549 87.4439 82.814 90.7467 85.627 92.0037C87.0536 92.641 88.6814 92.654 90.1147 92.0345C91.404 91.4847 92.4363 90.4664 93.0037 89.1848C94.2626 86.3736 93.0035 83.0708 90.1905 81.8139C88.7658 81.1747 87.138 81.1655 85.7028 81.7831ZM90.4022 89.4367C89.0059 90.814 86.7582 90.7967 85.3828 89.4023C84.0054 88.0059 84.0227 85.7583 85.4172 84.3828C86.8135 83.0055 89.0612 83.0228 90.4366 84.4172C91.814 85.8059 91.8044 88.0498 90.4138 89.4253C90.4118 89.431 90.408 89.4348 90.4022 89.4367Z" fill="#AECBFA"/>
<path d="M90.1166 92.0365L93.3235 95.2877C95.2821 97.2772 96.0967 100.125 95.4811 102.849C96.6871 103.02 97.8023 103.581 98.6592 104.445C98.8169 104.605 98.9572 104.778 99.0995 104.95C100.582 100.569 99.465 95.7238 96.2125 92.438L93.0056 89.1869C92.4382 90.4685 91.4059 91.4868 90.1166 92.0365Z" fill="#8563FF"/>
<path d="M69.4036 89.3982C67.2359 87.2006 63.6989 87.1744 61.5014 89.3421C59.3038 91.5098 59.2776 95.0467 61.4453 97.2443C63.613 99.4419 67.1499 99.468 69.3475 97.3004C71.5432 95.1308 71.5655 91.5976 69.4036 89.3982Z" fill="#8563FF"/>
<path d="M81.6075 106.84L75.2489 100.394C74.4624 99.5965 73.1769 99.5877 72.3796 100.374C71.5822 101.161 71.5734 102.446 72.3599 103.244L78.7185 109.69C81.9672 112.983 86.7913 114.164 91.1933 112.744C91.0202 112.6 90.8509 112.455 90.6951 112.297C89.8422 111.429 89.297 110.306 89.1427 109.098C86.4108 109.68 83.572 108.828 81.6075 106.84Z" fill="#8563FF"/>
<path d="M106.472 76.5194C104.274 78.687 104.248 82.224 106.416 84.4216C108.584 86.6191 112.12 86.6453 114.318 84.4776C116.516 82.3099 116.542 78.773 114.374 76.5754C112.205 74.3836 108.669 74.3555 106.472 76.5194Z" fill="#8563FF"/>
<path d="M94.2138 66.9774L100.572 73.4238C101.359 74.2211 102.644 74.2299 103.442 73.4434C104.239 72.6569 104.248 71.3714 103.461 70.5741L97.1028 64.1277C93.8541 60.838 89.03 59.6572 84.63 61.0752C84.7992 61.2198 84.9723 61.3645 85.1281 61.5224C85.9811 62.391 86.5262 63.5138 86.6806 64.722C89.4105 64.1458 92.2493 64.9935 94.2138 66.9774Z" fill="#8563FF"/>
<path d="M76.7275 68.8701C75.2417 73.2502 76.3583 78.092 79.6088 81.3836L82.8157 84.6347C83.3831 83.3531 84.4154 82.3348 85.7047 81.785L82.4979 78.5339C80.5392 76.5444 79.7247 73.6961 80.3402 70.9724C79.1342 70.8015 78.019 70.241 77.1621 69.3762C77.0121 69.2164 76.8718 69.0394 76.7275 68.8701Z" fill="#8563FF"/>
</g>
</g>
<defs>
<clipPath id="clip0_17_87">
<rect width="200" height="200" fill="white"/>
</clipPath>
<clipPath id="clip1_17_87">
<rect width="64.9277" height="64.9277" fill="white" transform="translate(42 86.5952) rotate(-44.6074)"/>
</clipPath>
</defs>
</svg>
